HIERARCHY
ROOT Root
{
  OFFSET 15.4931 12.0969 -1.55746
  CHANNELS 6 Xposition Yposition Zposition Zrotation Xrotation Yrotation
  JOINT Spine
  {
    OFFSET 5.3114 0 0
    CHANNELS 3 Zrotation Xrotation Yrotation
    JOINT Spine1
    {
      OFFSET 2.79004 0 0
      CHANNELS 3 Zrotation Xrotation Yrotation
      JOINT Neck
      {
        OFFSET 1.43377 0 0
        CHANNELS 3 Zrotation Xrotation Yrotation
        JOINT Head
        {
          OFFSET 1.86043 0 0
          CHANNELS 3 Zrotation Xrotation Yrotation
          End Site
          {
            OFFSET 0 0 0
          }
        }
      }
      JOINT LeftArm
      {
        OFFSET 0.0387506 0 2.55754
        CHANNELS 3 Zrotation Xrotation Yrotation
        JOINT LeftForeArm
        {
          OFFSET 4.24845 0 0
          CHANNELS 3 Zrotation Xrotation Yrotation
          JOINT LeftHand
          {
            OFFSET 4.01008 0 0
            CHANNELS 3 Zrotation Xrotation Yrotation
            End Site
            {
              OFFSET 0 0 0
            }
          }
        }
      }
      JOINT RightArm
      {
        OFFSET 0.0387506 0 -2.55754
        CHANNELS 3 Zrotation Xrotation Yrotation
        JOINT RightForeArm
        {
          OFFSET -4.24845 0 0
          CHANNELS 3 Zrotation Xrotation Yrotation
          JOINT RightHand
          {
            OFFSET -4.01009 0 0
            CHANNELS 3 Zrotation Xrotation Yrotation
            End Site
            {
              OFFSET 0 0 0
            }
          }
        }
      }
    }
  }
  JOINT LeftUpLeg
  {
    OFFSET -1.23318 0 2.05692
    CHANNELS 3 Zrotation Xrotation Yrotation
    JOINT LeftLeg
    {
      OFFSET 5.46397 0 0
      CHANNELS 3 Zrotation Xrotation Yrotation
      JOINT LeftFoot
      {
        OFFSET 4.68898 0 0
        CHANNELS 3 Zrotation Xrotation Yrotation
        End Site
        {
          OFFSET 0 0 0
        }
      }
    }
  }
  JOINT RightUpLeg
  {
    OFFSET -1.24454 0 -2.05007
    CHANNELS 3 Zrotation Xrotation Yrotation
    JOINT RightLeg
    {
      OFFSET -5.46397 0 0
      CHANNELS 3 Zrotation Xrotation Yrotation
      JOINT RightFoot
      {
        OFFSET -4.68901 0 0
        CHANNELS 3 Zrotation Xrotation Yrotation
        End Site
        {
          OFFSET 0 0 0
        }
      }
    }
  }
}
MOTION
Frames:	26
Frame Time:	0.0416667
15.5936 11.9944 -1.89658 101.167 -38.8968 1.37364 -6.34355 -6.41213 -14.565 7.44632 -2.29539 -0.402305 4.77547 7.59861 -3.84108 -10.5566 14.0317 12.7352 14.0569 -0.154096 -171.613 27.9817 0.128708 16.5096 -4.60966 -29.7625 173.229 165.136 42.4962 -130.463 35.4322 1.52864 20.7857 -0.262129 -1.86415 174.451 -11.2659 -9.35414 179.791 -32.9383 0.796576 -0.715149 76.8449 -2.62059 -167.248 154.397 -12.9585 172.227 -13.8762 0.382119 -0.748423 -31.1156 9.88154 -174.784 
15.6318 11.9914 -1.91708 100.957 -37.7433 0.487712 -6.59634 -7.67463 -16.6738 6.91125 -2.83301 -1.4227 5.91741 7.92027 -3.11054 -10.5461 13.9763 14.7637 16.811 0.112274 -169.978 30.2443 0.492113 17.8212 -5.27367 -33.1844 172.882 146.843 41.6039 -110.499 37.1324 1.92963 21.7417 -1.09588 -7.74947 174.38 -11.8483 -11.9265 -179.759 -34.0307 0.829062 -0.71286 78.1265 -2.19451 -167.854 155.091 -11.8594 171.805 -12.8928 0.371835 -0.751559 -31.3132 9.52898 -174.926 
15.6592 11.9889 -1.93245 100.602 -36.9512 -0.377248 -6.80045 -8.02416 -17.6948 6.71186 -3.05913 -2.29609 6.95697 8.09697 -2.55609 -9.99888 13.8902 15.4291 17.759 1.27593 -169.111 30.8492 0.598724 18.1702 -5.53556 -34.4653 172.737 134.622 32.9901 -95.7337 40.1559 2.71773 23.4224 -2.26073 -15.679 174.144 -12.1493 -16.1374 -179.932 -34.8203 0.90811 -0.710395 81.2151 -1.34453 -168.758 155.679 -10.9268 171.419 -12.249 0.368966 -0.754781 -31.5818 9.41253 -174.951 
15.6909 11.9892 -1.93393 100.326 -35.6589 -1.22157 -6.58038 -8.00254 -17.8035 6.25702 -3.05624 -2.57162 7.95299 8.12342 -2.1523 -9.384 13.6598 15.5064 17.3187 2.1651 -169.068 30.6841 0.569338 18.075 -5.50167 -34.2907 172.756 128.733 20.7732 -85.9149 43.3862 3.65983 25.1846 -2.89867 -19.7899 173.949 -12.5291 -18.8716 -179.779 -35.4983 0.925271 -0.697102 82.5253 -1.04466 -169.284 156.272 -10.0349 171.151 -11.551 0.359903 -0.759695 -31.1956 9.2057 -175.131 
15.7218 11.9938 -1.92885 99.9281 -33.9573 -2.12459 -6.01213 -7.61981 -17.3453 5.79907 -2.88588 -2.5778 8.52106 8.12207 -1.29596 -8.40718 13.2159 15.582 16.5013 2.30183 -169.425 30.6765 0.567963 18.0706 -5.50246 -34.3007 172.755 125.099 6.42528 -79.4277 46.2825 4.59812 26.7283 -3.32734 -22.4396 173.794 -12.912 -18.9063 -178.969 -36.3657 0.889915 -0.702094 81.1096 -1.37666 -169.342 157.308 -9.14662 171.042 -10.4071 0.341816 -0.769945 -30.8013 8.70177 -175.44 
15.7495 12.0044 -1.92303 99.7199 -32.2327 -2.83805 -5.63244 -6.78331 -16.2245 5.78184 -2.57678 -2.54227 8.23287 7.90472 -0.468841 -7.05669 12.5359 15.4276 15.0851 2.52962 -169.784 30.3607 0.512413 17.8885 -5.49448 -34.2663 172.76 121.341 -9.31881 -77.5233 48.1474 5.24429 27.7056 -3.65206 -24.3815 173.665 -13.4476 -17.1101 -177.812 -37.2457 0.803725 -0.699876 77.8867 -2.23426 -168.785 158.565 -8.73004 171.008 -8.48174 0.324158 -0.780816 -30.3679 8.12248 -175.849 
15.7743 12.0148 -1.91698 99.6699 -30.5527 -3.34636 -5.37356 -5.33103 -14.4269 5.69671 -2.06966 -2.44334 7.34754 7.29594 0.0992025 -5.07715 11.4628 14.4493 13.9004 1.52047 -169.84 29.7715 0.411558 17.548 -5.38485 -33.7328 172.821 119.631 -25.752 -78.8146 48.4925 5.36536 27.8827 -3.74509 -24.9271 173.627 -14.1316 -15.8402 -176.973 -37.9085 0.738905 -0.696377 75.2026 -2.9916 -168.408 158.763 -8.51456 170.936 -8.46113 0.3055 -0.791782 -28.7311 7.6493 -176.245 
15.7853 12.0232 -1.90699 99.8213 -28.6028 -3.63543 -5.34119 -2.95693 -12.3024 5.79424 -1.34044 -2.77916 5.67604 6.22635 0.849111 -2.82959 9.55535 13.5211 12.8917 -2.63119 -168.521 29.0646 0.295331 17.1388 -5.1991 -32.8128 172.923 120.349 -39.8011 -80.9298 47.3663 4.96928 27.2986 -3.39475 -22.8477 173.768 -15.0442 -15.1415 -176.481 -38.4079 0.68962 -0.693902 72.6324 -3.72513 -168.128 158.849 -8.84382 171.054 -8.31485 0.291397 -0.796937 -26.7279 6.92261 -176.8 
15.7958 12.0354 -1.89161 100.363 -25.8515 -3.40387 -5.74161 -0.571435 -10.6593 6.16808 -0.585845 -2.28873 3.73489 4.75695 1.35062 -0.67585 7.06531 11.8981 11.889 -9.07953 -167.309 28.6187 0.224517 16.8802 -4.71471 -30.321 173.176 122.348 -52.0118 -84.9511 45.5664 4.35803 26.3499 -2.71158 -18.6042 174.01 -16.367 -13.2743 -176.112 -38.2783 0.610621 -0.6973 68.1479 -5.22735 -167.4 157.915 -8.97669 171.626 -10.073 0.287496 -0.791473 -23.2495 6.29362 -177.333 
15.8002 12.0504 -1.8672 100.82 -22.2726 -2.79104 -6.06302 1.8663 -9.55909 6.59985 0.179991 -1.62376 1.85569 2.98548 1.58107 0.99187 4.01241 10.3175 10.8195 -16.4439 -166 28.5194 0.209063 16.8225 -4.19637 -27.5043 173.427 123.985 -61.0674 -92.4728 44.3063 3.94847 25.6788 -2.16881 -15.0707 174.168 -17.6087 -11.5819 -176.431 -37.4122 0.552302 -0.709502 62.9188 -7.00255 -166.853 156.703 -8.77825 172.89 -13.1182 0.29618 -0.78497 -18.917 5.91437 -177.754 
15.7888 12.0657 -1.82975 101.02 -18.6114 -2.22598 -6.47945 3.98185 -8.3882 6.93813 0.820482 -1.44524 -0.248187 1.29422 2.09744 2.96443 0.975197 8.43119 10.1435 -23.0448 -164.671 29.0737 0.296768 17.144 -4.05295 -26.698 173.493 126.03 -66.8088 -102.36 43.252 3.61879 25.1119 -1.69467 -11.883 174.278 -18.3528 -11.1994 -177.376 -36.2248 0.519157 -0.724659 58.9579 -8.56938 -166.354 156.163 -8.78583 174.413 -15.5813 0.308557 -0.783883 -14.8687 5.38496 -178.147 
15.7776 12.0817 -1.78035 100.67 -14.9716 -1.89469 -6.49986 5.41971 -7.1001 7.34979 1.29004 -1.09582 -1.2379 -0.269837 1.3066 3.24921 -1.67283 7.9413 8.74558 -28.4136 -164.278 29.5597 0.375987 17.4256 -4.061 -26.7438 173.489 126.628 -69.4864 -115.433 42.7693 3.47155 24.8511 -1.03851 -7.34825 174.388 -18.4819 -10.7073 -178.302 -35.0822 0.504179 -0.738114 54.8742 -10.0247 -166.288 156.382 -8.75159 175.9 -17.7521 0.326905 -0.782183 -10.9857 5.03359 -178.461 
15.7642 12.0923 -1.73087 100.037 -11.5993 -1.79864 -6.3311 6.48598 -5.64583 7.41114 1.65468 -0.85102 -1.62057 -1.62218 0.541258 3.24593 -4.03719 7.56396 6.97902 -32.1566 -164.511 29.4126 0.351817 17.3403 -3.95254 -26.1262 173.537 126.286 -68.2626 -130.801 42.5774 3.41378 24.7459 -0.700067 -4.96865 174.424 -18.3298 -10.0411 -178.96 -34.2827 0.510015 -0.743835 50.8606 -11.0228 -166.856 157.04 -8.65385 177.106 -19.6389 0.350111 -0.780187 -7.5084 4.97466 -178.705 
15.7373 12.1011 -1.67983 99.1353 -8.66053 -1.77901 -6.10318 7.22857 -3.92156 7.24364 1.90966 -0.890407 -1.7867 -2.72008 -0.266295 3.56604 -5.93279 7.20295 5.63132 -35.5596 -164.913 29.0338 0.290251 17.1209 -3.83678 -25.4602 173.588 127.097 -62.468 -145.866 42.0583 3.25939 24.4649 -0.422048 -3.00018 174.444 -17.6327 -9.13009 -179.47 -33.6129 0.511555 -0.729726 47.2393 -11.5863 -167.712 158.146 -8.55187 178.116 -21.2604 0.371371 -0.778171 -4.55144 4.78704 -178.908 
15.7003 12.1078 -1.62391 98.0066 -6.69499 -1.66408 -5.63336 7.8147 -1.99603 7.46514 2.13996 -0.546379 -2.43647 -3.44061 -1.34456 3.74693 -7.03475 6.08626 3.1722 -38.1178 -166.432 28.3656 0.185249 16.7332 -3.69664 -24.6435 173.647 133.941 -54.9254 -154.269 41.2026 3.0107 23.9978 -0.453175 -3.22226 174.445 -16.7144 -8.01724 -179.929 -33.3062 0.539243 -0.753183 44.4172 -11.7208 -168.6 159.33 -8.60663 178.912 -22.882 0.393592 -0.776409 -2.1722 4.96961 -179.057 
15.6679 12.1076 -1.56639 97.344 -5.01594 -1.35263 -5.50372 7.57936 -0.308439 6.87838 2.12846 -0.188861 -2.11117 -3.62281 -1.85507 3.45027 -7.30945 4.33413 2.0834 -39.7149 -167.813 28.2838 0.172117 16.6858 -4.09267 -26.9224 173.474 144.009 -46.1992 -159.537 39.4512 2.52457 23.0338 -0.25311 -1.80047 174.451 -16.0597 -6.27853 179.743 -32.8452 0.554291 -0.754415 41.0699 -11.7166 -169.713 160.195 -8.85656 179.686 -24.0685 0.410281 -0.775174 0.192214 4.85015 -179.213 
15.624 12.1071 -1.51697 96.949 -3.79765 -0.752198 -5.78795 6.15545 0.822105 6.69926 1.76951 0.348648 -1.76311 -3.31634 -2.14529 3.26528 -6.69328 2.59108 2.2641 -39.4267 -169.062 29.726 0.403825 17.5218 -4.9249 -31.4188 173.068 153.323 -34.369 -164.442 36.7156 1.83111 21.5101 -0.155916 -1.10924 174.453 -15.2485 -4.6411 179.179 -31.8578 0.565466 -0.753568 38.3091 -11.5011 -170.661 160.725 -9.22746 -179.394 -25.4894 0.430459 -0.774742 2.26347 5.0284 -179.359 
15.5691 12.1063 -1.48112 96.654 -3.35679 -0.204368 -6.08289 3.83016 1.56218 6.91037 1.16554 1.20358 -1.55308 -2.61832 -1.97165 2.68068 -5.42981 0.361719 3.27799 -37.9658 -170.246 31.8955 0.792125 18.7716 -5.48861 -34.238 172.763 162.803 -21.4089 -167.383 33.8244 1.17845 19.8743 -0.225893 -1.607 174.452 -14.3377 -2.99813 178.767 -30.9326 0.574791 -0.752654 36.4234 -11.0907 -171.422 160.97 -9.86888 -178.769 -26.74 0.448045 -0.784305 3.73309 5.48276 -179.5 
15.5131 12.1052 -1.46155 96.5365 -4.10674 0.398962 -6.2185 1.25294 1.82858 7.08035 0.4851 2.08775 -1.8115 -1.37348 -1.50892 2.99464 -3.17456 -1.54451 5.0709 -36.2469 -170.956 33.8844 1.19052 19.9086 -5.80418 -35.7376 172.582 171.193 -6.26778 -168.702 30.7194 0.574069 18.096 -0.243437 -1.73177 174.452 -13.3321 -1.95996 178.229 -29.9745 0.576556 -0.751659 36.1188 -10.8519 -171.601 160.778 -10.6405 -178.334 -27.7951 0.462327 -0.785798 4.02801 6.09651 -179.575 
15.4574 12.104 -1.45782 96.41 -5.1579 0.787263 -6.10088 -2.15299 1.87435 7.27822 -0.446797 2.765 -1.47154 0.100882 -0.892199 2.35037 -0.471359 -3.44844 6.99001 -33.8993 -171.299 34.7282 1.37205 20.3879 -5.87411 -36.0624 172.541 178.347 9.6329 -168.06 29.1017 0.300692 17.1605 -0.22146 -1.57543 174.452 -12.3056 -1.77267 177.817 -29.2172 0.573963 -0.750572 36.7254 -10.8058 -171.414 160.66 -10.8956 -178.132 -28.368 0.469125 -0.784854 3.52316 6.68416 -179.564 
15.4063 12.1026 -1.46837 96.4993 -6.76499 1.1029 -6.33767 -6.15171 1.55902 7.61146 -1.56156 3.17983 0.0767668 2.06709 0.0312957 0.98927 3.10998 -5.36676 8.93942 -30.3864 -171.578 34.3131 1.28217 20.1522 -5.7805 -35.6271 172.596 -177.596 24.6165 -164.913 29.0915 0.298446 17.1549 -0.408325 -2.90247 174.445 -11.4626 -1.56872 177.588 -28.5434 0.568377 -0.749381 37.6139 -10.8948 -171.07 160.3 -11.1915 -178.133 -28.7157 0.47096 -0.78343 2.47128 7.27469 -179.49 
15.3678 12.1011 -1.49694 96.8294 -8.79039 1.68397 -7.03811 -10.1946 0.380622 7.65761 -2.71952 3.33169 1.89397 4.27986 1.35488 1.03729 6.84148 -7.43272 11.2841 -26.8225 -171.524 33.1982 1.04883 19.5173 -5.55267 -34.5469 172.727 -178.458 37.6227 -158.171 30.9842 0.623187 18.2479 -1.08267 -7.65721 174.382 -10.7337 -1.15798 177.206 -27.5288 0.559472 -0.748073 38.4855 -11.2981 -170.477 159.355 -11.8783 -178.15 -29.3909 0.476503 -0.781621 1.29269 7.97896 -179.392 
15.3502 12.0958 -1.53726 97.4671 -11.2172 2.36298 -8.24202 -13.9797 -1.47806 7.64323 -3.83984 3.18521 4.22283 6.48278 2.75799 1.01438 10.3349 -9.2209 13.5523 -22.3669 -171.347 31.8638 0.786329 18.7534 -5.17139 -32.6739 172.938 172.314 47.4988 -145.463 33.5085 1.11258 19.6941 -1.79118 -12.5389 174.258 -10.3232 -0.301909 176.948 -26.638 0.550192 -0.746637 39.5574 -11.5712 -169.891 157.903 -12.7911 -178.401 -30.0122 0.481216 -0.777923 -0.207711 8.41003 -179.229 
15.3723 12.0899 -1.58694 98.2159 -14.0275 2.52237 -9.10472 -16.6915 -3.21586 7.17674 -4.70235 2.54269 6.19287 8.41526 4.19728 1.31259 13.1337 -9.86321 15.4782 -18.4452 -170.394 30.4738 0.532357 17.9536 -4.87637 -31.1676 173.094 156.279 51.56 -127.264 36.0084 1.66435 21.1147 -2.33743 -16.1827 174.123 -10.6106 0.625996 177.447 -26.8486 0.546411 -0.742388 41.4042 -11.5455 -169.321 156.437 -13.495 -179.401 -29.6522 0.478076 -0.767991 -2.24564 8.49624 -179.019 
15.399 12.082 -1.64094 98.4711 -17.8911 2.42306 -9.39521 -17.7158 -4.86859 6.9303 -5.06032 2.1932 7.71315 9.99879 5.13874 1.40367 15.4401 -10.024 16.4029 -15.5021 -169.569 29.5886 0.380969 17.4423 -4.6565 -30.0124 173.206 140.355 48.6907 -108.837 38.3546 2.2061 22.3778 -2.82612 -19.3321 173.973 -10.4333 0.434625 177.832 -27.5676 0.539692 -0.735401 45.8467 -11.2576 -168.048 155.506 -13.5098 179.455 -28.6662 0.45366 -0.74462 -5.88544 8.95388 -178.539 
15.4452 12.0707 -1.6846 98.6821 -21.6857 2.67345 -9.43551 -17.4191 -6.75862 6.73006 -5.05475 1.75501 8.7794 11.143 5.52612 0.949936 17.2548 -9.41828 16.361 -13.875 -168.33 29.5706 0.377914 17.4319 -4.54305 -29.4054 173.262 128.859 41.6225 -95.1662 40.4429 2.7964 23.5816 -3.20973 -21.722 173.839 -10.1171 0.478302 177.904 -27.8163 0.534669 -0.731339 49.5328 -10.8786 -166.997 154.545 -13.2861 178.778 -27.822 0.438746 -0.743086 -9.8401 9.46958 -177.912 
